# xmcd
#
# Track frame offsets:
#	150
#	13888
#	27808
#	42868
#	56698
#	69453
#	82465
#	94820
#	110405
#	123118
#
# Disc length: 1826 seconds
#
# Revision: 3
# Processed by: cddbd v1.5.2PL0 Copyright (c) Steve Scherf et al.
# Submitted via: EasyCDDAExtractor 9.1.3.1
#
DISCID=8307200a
DTITLE=Sawyer Brown
DYEAR=1987
DGENRE=Country
TTITLE0=Leona
TTITLE1=Feel Like Me
TTITLE2=Used To Blue
TTITLE3=It's Hard To Keep A Good Love Down
TTITLE4=Step That Step
TTITLE5=Smokin' In The Rockies
TTITLE6=Staying Afloat
TTITLE7=Broken Candy
TTITLE8=The Sun Don't Shine On The Same Folks All The Time
TTITLE9=Going Back To Indiana
EXTD=
EXTT0=
EXTT1=
EXTT2=
EXTT3=
EXTT4=
EXTT5=
EXTT6=
EXTT7=
EXTT8=
EXTT9=
PLAYORDER=
